<?xml version="1.0" encoding="UTF-8"?>
<svg viewBox="0 0 180 141" version="1.1" xmlns="http://www.w3.org/2000/svg" xmlns:xlink="http://www.w3.org/1999/xlink">
    <!-- Generator: Sketch 47.1 (45422) - http://www.bohemiancoding.com/sketch -->
    <title>Combined Shape</title>
    <desc>Created with Sketch.</desc>
    <defs></defs>
    <g id="Current" stroke="none" stroke-width="1" fill="none" fill-rule="evenodd">
        <g id="03_Do" transform="translate(-630.000000, -740.000000)" >
            <g id="Row-2" transform="translate(480.000000, 540.000000)">
                <g id="Left">
                    <g id="" transform="translate(150.000000, 200.000000)">
                        <g id="Combined-Shape" class="" >
                            <path class="logo-part" fill="#000" d="M-0.0004,60.1593254 L-0.0004,40.173679 C-0.0004,18.097534 17.9076,0.202386292 39.9996,0.202386292 L59.9996,0.202386292 L59.9996,60.1593254 L-0.0004,60.1593254  Z"></path>
                            <path class="logo-part" fill="#000" d="M80,60.1593254 L80,0.200387728 L180,0.200387728 L180,60.1593254 L80,60.1593254 Z"></path>
                            <path class="logo-part" fill="#000" d="M1.13688356e-14,140.101911 L1.13688356e-14,80.1449717 L99.998,80.1449717 L99.998,140.101911 L1.13688356e-14,140.101911 Z"></path>
                            <path class="logo-part" fill="#000" d="M119.9998,140.101911 L119.9998,80.1449717 L179.9998,80.1449717 L179.9998,100.130618 C179.9998,122.206763 162.0918,140.101911 139.9998,140.101911 L119.9998,140.101911 Z"></path>
                        </g>
                    </g>
                </g>
            </g>
        </g>
    </g>
</svg>